<svg width="49" height="18" viewBox="0 0 49 18" fill="none" xmlns="http://www.w3.org/2000/svg">
<path d="M0.289297 2H9.3293V4.34L4.5893 16H1.6693L6.2693 4.64H0.289297V2ZM19.9626 11.06V13.62H18.4626V16H15.6826V13.62H9.06258V11.06L13.7226 2H16.6826L12.0426 11.06H15.6826V7.74H18.4626V11.06H19.9626Z" fill="#5D5FEF"/>
<path d="M22.0441 18H20.9041L28.9041 -2.38419e-07H30.0441L22.0441 18ZM33.0529 7.6H34.4929V16H32.8369V9.352L31.2529 9.796L30.8449 8.38L33.0529 7.6ZM39.5895 11.008C40.1575 11.176 40.6175 11.472 40.9695 11.896C41.3295 12.312 41.5095 12.816 41.5095 13.408C41.5095 14.272 41.2175 14.948 40.6335 15.436C40.0575 15.924 39.3495 16.168 38.5095 16.168C37.8535 16.168 37.2655 16.02 36.7455 15.724C36.2335 15.42 35.8615 14.976 35.6295 14.392L37.0455 13.576C37.2535 14.224 37.7415 14.548 38.5095 14.548C38.9335 14.548 39.2615 14.448 39.4935 14.248C39.7335 14.04 39.8535 13.76 39.8535 13.408C39.8535 13.064 39.7335 12.788 39.4935 12.58C39.2615 12.372 38.9335 12.268 38.5095 12.268H38.1495L37.5135 11.308L39.1695 9.148H35.8815V7.6H41.1615V8.968L39.5895 11.008ZM48.8018 13.036V14.572H47.9018V16H46.2338V14.572H42.2618V13.036L45.0578 7.6H46.8338L44.0498 13.036H46.2338V11.044H47.9018V13.036H48.8018Z" fill="#717171"/>
</svg>
