<svg width="38" height="21" viewBox="0 0 38 21" fill="none" xmlns="http://www.w3.org/2000/svg">
<rect x="0.306946" y="0.697754" width="37.6931" height="20.2426" rx="10.1213" fill="#EF5DA8"/>
<path d="M14.7364 7.68763H9.62266V8.99834H11.4894V14.6383H12.8597V8.99834H14.7364V7.68763ZM18.3905 14.7774C20.3962 14.7774 22.0048 13.1886 22.0048 11.163C22.0048 9.12742 20.3962 7.54862 18.3905 7.54862C16.3847 7.54862 14.786 9.12742 14.786 11.163C14.786 13.1886 16.3847 14.7774 18.3905 14.7774ZM18.3905 13.4369C17.1294 13.4369 16.1464 12.4935 16.1464 11.163C16.1464 9.82249 17.1294 8.87918 18.3905 8.87918C19.6515 8.87918 20.6346 9.82249 20.6346 11.163C20.6346 12.4935 19.6515 13.4369 18.3905 13.4369ZM28.1611 7.68763H22.9679V14.6383H24.3382V8.99834H26.7908V14.6383H28.1611V7.68763Z" fill="white"/>
</svg>
