<svg width="591" height="19" viewBox="0 0 591 19" fill="none" xmlns="http://www.w3.org/2000/svg">
<path d="M10.48 13.528C9.36 14.648 7.98933 15.208 6.368 15.208C4.74667 15.208 3.37067 14.648 2.24 13.528C1.12 12.3973 0.56 11.0213 0.56 9.4C0.56 7.77867 1.12 6.408 2.24 5.288C3.37067 4.15733 4.74667 3.592 6.368 3.592C7.98933 3.592 9.36 4.15733 10.48 5.288C11.6107 6.408 12.176 7.77867 12.176 9.4C12.176 11.0213 11.6107 12.3973 10.48 13.528ZM3.536 12.28C4.304 13.0373 5.248 13.416 6.368 13.416C7.488 13.416 8.42667 13.0373 9.184 12.28C9.952 11.512 10.336 10.552 10.336 9.4C10.336 8.248 9.952 7.29333 9.184 6.536C8.42667 5.768 7.488 5.384 6.368 5.384C5.248 5.384 4.304 5.768 3.536 6.536C2.77867 7.29333 2.4 8.248 2.4 9.4C2.4 10.552 2.77867 11.512 3.536 12.28ZM17.5184 15.208C16.313 15.208 15.305 14.8027 14.4944 13.992C13.6944 13.1813 13.2944 12.184 13.2944 11C13.2944 9.80533 13.6944 8.808 14.4944 8.008C15.305 7.19733 16.313 6.792 17.5184 6.792C18.297 6.792 19.0064 6.97867 19.6464 7.352C20.2864 7.72533 20.7664 8.22667 21.0864 8.856L19.5984 9.72C19.417 9.336 19.1397 9.03733 18.7664 8.824C18.4037 8.6 17.9824 8.488 17.5024 8.488C16.7984 8.488 16.2064 8.728 15.7264 9.208C15.257 9.688 15.0224 10.2853 15.0224 11C15.0224 11.7147 15.257 12.312 15.7264 12.792C16.2064 13.272 16.7984 13.512 17.5024 13.512C17.9717 13.512 18.393 13.4 18.7664 13.176C19.1504 12.952 19.4384 12.6533 19.6304 12.28L21.1184 13.128C20.777 13.768 20.2864 14.2747 19.6464 14.648C19.0064 15.0213 18.297 15.208 17.5184 15.208ZM28.4013 7V8.664H25.7933V15H24.0653V8.664H21.4413V7H28.4013ZM35.594 7H37.322V15H35.594V13.848C34.9433 14.7547 34.01 15.208 32.794 15.208C31.6953 15.208 30.7567 14.8027 29.978 13.992C29.1993 13.1707 28.81 12.1733 28.81 11C28.81 9.816 29.1993 8.81867 29.978 8.008C30.7567 7.19733 31.6953 6.792 32.794 6.792C34.01 6.792 34.9433 7.24 35.594 8.136V7ZM31.258 12.84C31.738 13.32 32.3407 13.56 33.066 13.56C33.7913 13.56 34.394 13.32 34.874 12.84C35.354 12.3493 35.594 11.736 35.594 11C35.594 10.264 35.354 9.656 34.874 9.176C34.394 8.68533 33.7913 8.44 33.066 8.44C32.3407 8.44 31.738 8.68533 31.258 9.176C30.778 9.656 30.538 10.264 30.538 11C30.538 11.736 30.778 12.3493 31.258 12.84ZM46.0881 7V15H44.3601V8.664H41.6881V11.64C41.6881 12.9093 41.4108 13.8107 40.8561 14.344C40.3015 14.8773 39.5121 15.096 38.4881 15V13.384C38.9788 13.4693 39.3468 13.368 39.5921 13.08C39.8375 12.792 39.9601 12.2853 39.9601 11.56V7H46.0881ZM51.8778 15.208C50.7044 15.208 49.7071 14.8027 48.8858 13.992C48.0644 13.1813 47.6538 12.184 47.6538 11C47.6538 9.816 48.0644 8.81867 48.8858 8.008C49.7071 7.19733 50.7044 6.792 51.8778 6.792C53.0618 6.792 54.0591 7.19733 54.8698 8.008C55.6911 8.81867 56.1018 9.816 56.1018 11C56.1018 12.184 55.6911 13.1813 54.8698 13.992C54.0591 14.8027 53.0618 15.208 51.8778 15.208ZM50.1018 12.808C50.5818 13.288 51.1738 13.528 51.8778 13.528C52.5818 13.528 53.1738 13.288 53.6538 12.808C54.1338 12.328 54.3738 11.7253 54.3738 11C54.3738 10.2747 54.1338 9.672 53.6538 9.192C53.1738 8.712 52.5818 8.472 51.8778 8.472C51.1738 8.472 50.5818 8.712 50.1018 9.192C49.6218 9.672 49.3818 10.2747 49.3818 11C49.3818 11.7253 49.6218 12.328 50.1018 12.808ZM61.4403 15.208C60.2349 15.208 59.2269 14.8027 58.4163 13.992C57.6163 13.1813 57.2163 12.184 57.2163 11C57.2163 9.80533 57.6163 8.808 58.4163 8.008C59.2269 7.19733 60.2349 6.792 61.4403 6.792C62.2189 6.792 62.9283 6.97867 63.5683 7.352C64.2083 7.72533 64.6883 8.22667 65.0083 8.856L63.5203 9.72C63.3389 9.336 63.0616 9.03733 62.6883 8.824C62.3256 8.6 61.9043 8.488 61.4243 8.488C60.7203 8.488 60.1283 8.728 59.6483 9.208C59.1789 9.688 58.9443 10.2853 58.9443 11C58.9443 11.7147 59.1789 12.312 59.6483 12.792C60.1283 13.272 60.7203 13.512 61.4243 13.512C61.8936 13.512 62.3149 13.4 62.6883 13.176C63.0723 12.952 63.3603 12.6533 63.5523 12.28L65.0403 13.128C64.6989 13.768 64.2083 14.2747 63.5683 14.648C62.9283 15.0213 62.2189 15.208 61.4403 15.208ZM69.8241 9.72C70.6775 9.72 71.3761 9.96533 71.9201 10.456C72.4641 10.936 72.7361 11.5707 72.7361 12.36C72.7361 13.1387 72.4641 13.7733 71.9201 14.264C71.3761 14.7547 70.6775 15 69.8241 15H66.3361V7H68.0641V9.72H69.8241ZM69.8401 13.448C70.1815 13.448 70.4641 13.3467 70.6881 13.144C70.9228 12.9413 71.0401 12.68 71.0401 12.36C71.0401 12.0293 70.9228 11.768 70.6881 11.576C70.4641 11.3733 70.1815 11.272 69.8401 11.272H68.0641V13.448H69.8401Z" fill="#868686"/>
<path d="M96.008 11.272V12.984H94.728V15H92.872V12.984H87.368V11.272L91.224 3.8H93.224L89.368 11.272H92.872V8.36H94.728V11.272H96.008ZM104.553 13.624C103.785 14.68 102.708 15.208 101.321 15.208C99.9346 15.208 98.8519 14.68 98.0733 13.624C97.3053 12.568 96.9213 11.16 96.9213 9.4C96.9213 7.64 97.3053 6.232 98.0733 5.176C98.8519 4.12 99.9346 3.592 101.321 3.592C102.708 3.592 103.785 4.12 104.553 5.176C105.332 6.232 105.721 7.64 105.721 9.4C105.721 11.16 105.332 12.568 104.553 13.624ZM101.321 13.416C102.153 13.416 102.788 13.0693 103.225 12.376C103.663 11.6827 103.881 10.6907 103.881 9.4C103.881 8.10933 103.663 7.11733 103.225 6.424C102.788 5.73067 102.153 5.384 101.321 5.384C100.5 5.384 99.8653 5.73067 99.4173 6.424C98.9799 7.11733 98.7613 8.10933 98.7613 9.4C98.7613 10.6907 98.9799 11.6827 99.4173 12.376C99.8653 13.0693 100.5 13.416 101.321 13.416ZM107.799 16.6H106.919L113.319 2.2H114.199L107.799 16.6ZM117.918 3.8H119.518V15H117.678V5.768L115.422 6.408L114.974 4.84L117.918 3.8ZM128.991 13.624C128.223 14.68 127.145 15.208 125.759 15.208C124.372 15.208 123.289 14.68 122.511 13.624C121.743 12.568 121.359 11.16 121.359 9.4C121.359 7.64 121.743 6.232 122.511 5.176C123.289 4.12 124.372 3.592 125.759 3.592C127.145 3.592 128.223 4.12 128.991 5.176C129.769 6.232 130.159 7.64 130.159 9.4C130.159 11.16 129.769 12.568 128.991 13.624ZM125.759 13.416C126.591 13.416 127.225 13.0693 127.663 12.376C128.1 11.6827 128.319 10.6907 128.319 9.4C128.319 8.10933 128.1 7.11733 127.663 6.424C127.225 5.73067 126.591 5.384 125.759 5.384C124.937 5.384 124.303 5.73067 123.855 6.424C123.417 7.11733 123.199 8.10933 123.199 9.4C123.199 10.6907 123.417 11.6827 123.855 12.376C124.303 13.0693 124.937 13.416 125.759 13.416ZM139.069 13.624C138.301 14.68 137.224 15.208 135.837 15.208C134.45 15.208 133.368 14.68 132.589 13.624C131.821 12.568 131.437 11.16 131.437 9.4C131.437 7.64 131.821 6.232 132.589 5.176C133.368 4.12 134.45 3.592 135.837 3.592C137.224 3.592 138.301 4.12 139.069 5.176C139.848 6.232 140.237 7.64 140.237 9.4C140.237 11.16 139.848 12.568 139.069 13.624ZM135.837 13.416C136.669 13.416 137.304 13.0693 137.741 12.376C138.178 11.6827 138.397 10.6907 138.397 9.4C138.397 8.10933 138.178 7.11733 137.741 6.424C137.304 5.73067 136.669 5.384 135.837 5.384C135.016 5.384 134.381 5.73067 133.933 6.424C133.496 7.11733 133.277 8.10933 133.277 9.4C133.277 10.6907 133.496 11.6827 133.933 12.376C134.381 13.0693 135.016 13.416 135.837 13.416ZM147.515 16.6C146.342 14.2533 145.755 11.8533 145.755 9.4C145.755 6.94667 146.342 4.54667 147.515 2.2H149.243C148.07 4.54667 147.483 6.94667 147.483 9.4C147.483 11.8533 148.07 14.2533 149.243 16.6H147.515ZM159.307 6.792C160.213 6.792 160.944 7.08533 161.499 7.672C162.053 8.25867 162.331 9.048 162.331 10.04V15H160.603V10.152C160.603 9.59733 160.464 9.17067 160.187 8.872C159.909 8.56267 159.531 8.408 159.051 8.408C158.517 8.408 158.091 8.584 157.771 8.936C157.461 9.288 157.307 9.816 157.307 10.52V15H155.579V10.152C155.579 9.59733 155.445 9.17067 155.179 8.872C154.923 8.56267 154.555 8.408 154.075 8.408C153.552 8.408 153.125 8.58933 152.795 8.952C152.464 9.304 152.299 9.82667 152.299 10.52V15H150.571V7H152.299V7.96C152.811 7.18133 153.573 6.792 154.587 6.792C155.611 6.792 156.368 7.21333 156.859 8.056C157.392 7.21333 158.208 6.792 159.307 6.792ZM168.708 6.792C169.807 6.792 170.745 7.19733 171.524 8.008C172.303 8.81867 172.692 9.816 172.692 11C172.692 12.1733 172.303 13.1707 171.524 13.992C170.745 14.8027 169.807 15.208 168.708 15.208C167.492 15.208 166.559 14.7547 165.908 13.848V15H164.18V3.8H165.908V8.136C166.559 7.24 167.492 6.792 168.708 6.792ZM166.628 12.84C167.108 13.32 167.711 13.56 168.436 13.56C169.161 13.56 169.764 13.32 170.244 12.84C170.724 12.3493 170.964 11.736 170.964 11C170.964 10.264 170.724 9.656 170.244 9.176C169.764 8.68533 169.161 8.44 168.436 8.44C167.711 8.44 167.108 8.68533 166.628 9.176C166.148 9.656 165.908 10.264 165.908 11C165.908 11.736 166.148 12.3493 166.628 12.84ZM175.298 16.6H173.57C174.743 14.2533 175.33 11.8533 175.33 9.4C175.33 6.94667 174.743 4.54667 173.57 2.2H175.298C176.471 4.54667 177.058 6.94667 177.058 9.4C177.058 11.8533 176.471 14.2533 175.298 16.6Z" fill="#2F2F2F"/>
<rect x="193" y="2" width="398" height="15" rx="7.5" fill="#C7C8FF"/>
<rect x="193" y="2" width="238" height="15" rx="7.5" fill="#5D5FEF"/>
</svg>
